<svg width="20" height="20" fill="none" xmlns="http://www.w3.org/2000/svg"><g opacity=".5" fill="#fff"><path d="M13.994 11.333a3.811 3.811 0 00-3.572-5.144c-.45 0-.895.081-1.317.239L10 7.35A2.705 2.705 0 0113.122 10c0 .138-.011.275-.033.411l.905.922z"/><path d="M19.05 9.739c-1.872-3.461-5.155-5.556-8.789-5.556a9.344 9.344 0 00-2.91.473l.894.9a8.211 8.211 0 012.016-.262c3.128 0 5.972 1.745 7.667 4.684A9.861 9.861 0 0115.5 12.81l.789.789a11.074 11.074 0 002.778-3.333L19.21 10l-.16-.261zM2.706 3.211L5.183 5.69a10.844 10.844 0 00-3.716 4.05l-.145.26.145.267c1.872 3.46 5.155 5.555 8.789 5.555a9.406 9.406 0 004.094-.939l2.778 2.778.972-.833L3.656 2.383l-.95.828zm5.416 5.417l3.695 3.694a2.672 2.672 0 01-1.39.4A2.706 2.706 0 017.723 10c.007-.485.145-.96.4-1.372zm-.805-.806a3.805 3.805 0 005.305 5.306l.89.889a8.282 8.282 0 01-3.256.666c-3.128 0-5.973-1.744-7.667-4.683a9.605 9.605 0 013.4-3.5l1.328 1.322z"/></g></svg>